<?xml version="1.0" encoding="utf-8"?>
<!-- Generator: Adobe Illustrator 21.1.0, SVG Export Plug-In . SVG Version: 6.00 Build 0)  -->
<svg version="1.1" class="Main__logo" xmlns="http://www.w3.org/2000/svg" xmlns:xlink="http://www.w3.org/1999/xlink" x="0px"
	 y="0px" viewBox="0 0 500 500" style="enable-background:new 0 0 500 500;" xml:space="preserve">
<style type="text/css">
	.st0{fill:#222222;}
</style>
<g>
	<path class="st0" d="M336.6,375.6c-66.3,66.3-181.4,68.6-251.1-1.1l-39.8,39.8c91.1,91.1,238.5,91.1,329.5,0L336.6,375.6z"/>
	<path class="st0" d="M163.5,123c66.3-66.3,181.4-68.6,251.1,1.1l39.8-39.8c-91.1-91.1-238.5-91.1-329.5,0L163.5,123z"/>
	<path class="st0" d="M124.6,84.1c-66.3,66.3-68.6,181.4,1.1,251.1L85.9,375c-91.1-91.1-91.1-238.5,0-329.5L124.6,84.1z"/>
	<path class="st0" d="M376,162.8c66.3,66.3,68.6,181.4-1.1,251.1l39.8,39.8c91.1-91.1,91.1-238.5,0-329.5L376,162.8z"/>
	<path class="st0" d="M202.6,319.2c36.7,36.7,100.3,37.9,138.8-0.6l22,22c-50.4,50.4-131.8,50.4-182.2,0L202.6,319.2z"/>
	<path class="st0" d="M298.3,179.6c-36.7-36.7-100.3-37.9-138.8,0.6l-22-22c50.4-50.4,131.8-50.4,182.2,0L298.3,179.6z"/>
	<path class="st0" d="M319.8,158.1c36.7,36.7,37.9,100.3-0.6,138.8l22,22c50.4-50.4,50.4-131.8,0-182.2L319.8,158.1z"/>
	<path class="st0" d="M180.8,201.6c-36.7,36.7-37.9,100.3,0.6,138.8l-22,22c-50.4-50.4-50.4-131.8,0-182.2L180.8,201.6z"/>
	<path class="st0" d="M276.7,288.1c-20.3,20.3-55.5,21-76.8-0.3l-12.2,12.2c27.8,27.8,72.9,27.8,100.7,0L276.7,288.1z"/>
	<path class="st0" d="M223.8,210.9c20.3-20.3,55.5-21,76.8,0.3l12.2-12.2c-27.8-27.8-72.9-27.8-100.7,0L223.8,210.9z"/>
	<path class="st0" d="M211.9,199c-20.3,20.3-21,55.5,0.3,76.8l-12.2,12.2c-27.8-27.8-27.8-72.9,0-100.7L211.9,199z"/>
	<path class="st0" d="M288.7,223c20.3,20.3,21,55.5-0.3,76.8l12.2,12.2c27.8-27.8,27.8-72.9,0-100.7L288.7,223z"/>
</g>
</svg>
