<?xml version="1.0" encoding="utf-8"?>
<!-- Generator: Adobe Illustrator 21.1.0, SVG Export Plug-In . SVG Version: 6.00 Build 0)  -->
<svg version="1.1" class="Header__logo-white" xmlns="http://www.w3.org/2000/svg" xmlns:xlink="http://www.w3.org/1999/xlink" x="0px"
	 y="0px" viewBox="0 0 3890 500" style="enable-background:new 0 0 3890 500;" xml:space="preserve">
<style type="text/css">
	.st0{fill:#FAFAFA;}
</style>
<g>
	<path class="st0" d="M336.6,375.6c-66.3,66.3-181.4,68.6-251.1-1.1l-39.8,39.8c91.1,91.1,238.5,91.1,329.5,0L336.6,375.6z"/>
	<path class="st0" d="M163.5,123c66.3-66.3,181.4-68.6,251.1,1.1l39.8-39.8c-91.1-91.1-238.5-91.1-329.5,0L163.5,123z"/>
	<path class="st0" d="M124.6,84.1c-66.3,66.3-68.6,181.4,1.1,251.1L85.9,375c-91.1-91.1-91.1-238.5,0-329.5L124.6,84.1z"/>
	<path class="st0" d="M376,162.8c66.3,66.3,68.6,181.4-1.1,251.1l39.8,39.8c91.1-91.1,91.1-238.5,0-329.5L376,162.8z"/>
	<path class="st0" d="M202.6,319.2c36.7,36.7,100.3,37.9,138.8-0.6l22,22c-50.4,50.4-131.8,50.4-182.2,0L202.6,319.2z"/>
	<path class="st0" d="M298.3,179.6c-36.7-36.7-100.3-37.9-138.8,0.6l-22-22c50.4-50.4,131.8-50.4,182.2,0L298.3,179.6z"/>
	<path class="st0" d="M319.8,158.1c36.7,36.7,37.9,100.3-0.6,138.8l22,22c50.4-50.4,50.4-131.8,0-182.2L319.8,158.1z"/>
	<path class="st0" d="M180.8,201.6c-36.7,36.7-37.9,100.3,0.6,138.8l-22,22c-50.4-50.4-50.4-131.8,0-182.2L180.8,201.6z"/>
	<path class="st0" d="M276.7,288.1c-20.3,20.3-55.5,21-76.8-0.3L187.7,300c27.8,27.8,72.9,27.8,100.7,0L276.7,288.1z"/>
	<path class="st0" d="M223.8,210.9c20.3-20.3,55.5-21,76.8,0.3l12.2-12.2c-27.8-27.8-72.9-27.8-100.7,0L223.8,210.9z"/>
	<path class="st0" d="M211.9,199c-20.3,20.3-21,55.5,0.3,76.8L200,288c-27.8-27.8-27.8-72.9,0-100.7L211.9,199z"/>
	<path class="st0" d="M288.7,223c20.3,20.3,21,55.5-0.3,76.8l12.2,12.2c27.8-27.8,27.8-72.9,0-100.7L288.7,223z"/>
</g>
<g>
	<path class="st0" d="M577.6,139.9h65l72.7,206.3h0.7l70.9-206.3h64.2v263.6h-43.9V200.1h-0.7l-73.1,203.4h-38l-73.1-203.4h-0.7
		v203.4h-43.9V139.9z"/>
	<path class="st0" d="M1018.7,133.6c19.7,0,37.3,3.7,53,11.1c15.6,7.4,28.9,17.3,39.7,29.9c10.8,12.6,19.1,27.2,24.9,43.9
		c5.8,16.7,8.7,34.5,8.7,53.2c0,19-2.9,36.8-8.7,53.5c-5.8,16.7-14.1,31.4-24.9,43.9c-10.8,12.6-24.1,22.5-39.7,29.7
		c-15.6,7.3-33.3,10.9-53,10.9c-19.7,0-37.3-3.6-53-10.9c-15.6-7.3-28.9-17.2-39.7-29.7c-10.8-12.6-19.1-27.2-24.9-43.9
		c-5.8-16.7-8.7-34.6-8.7-53.5c0-18.7,2.9-36.4,8.7-53.2c5.8-16.7,14.1-31.4,24.9-43.9c10.8-12.6,24.1-22.5,39.7-29.9
		C981.4,137.3,999,133.6,1018.7,133.6z M1018.7,171.3c-14,0-26.2,2.8-36.4,8.5c-10.2,5.7-18.5,13.2-24.9,22.7
		c-6.4,9.5-11.1,20.2-14.2,32.3c-3.1,12.1-4.6,24.4-4.6,36.9s1.5,24.9,4.6,36.9c3.1,12.1,7.8,22.8,14.2,32.3
		c6.4,9.5,14.7,17,24.9,22.7c10.2,5.7,22.3,8.5,36.4,8.5c14,0,26.1-2.8,36.4-8.5c10.2-5.7,18.5-13.2,24.9-22.7
		c6.4-9.5,11.1-20.2,14.2-32.3c3.1-12.1,4.6-24.4,4.6-36.9s-1.5-24.9-4.6-36.9c-3.1-12.1-7.8-22.8-14.2-32.3
		c-6.4-9.5-14.7-17-24.9-22.7C1044.9,174.1,1032.8,171.3,1018.7,171.3z"/>
	<path class="st0" d="M1187.1,139.9h125.9c29,0,50.8,6.3,65.3,18.8c14.5,12.6,21.8,30,21.8,52.4c0,12.6-1.8,23-5.5,31.2
		c-3.7,8.2-8,14.9-12.9,19.9c-4.9,5-9.8,8.7-14.6,10.9c-4.8,2.2-8.3,3.7-10.5,4.4v0.7c3.9,0.5,8.2,1.7,12.7,3.7
		c4.6,2,8.8,5.1,12.7,9.4c3.9,4.3,7.2,9.9,9.8,16.8c2.6,6.9,3.9,15.5,3.9,25.8c0,15.5,1.2,29.6,3.5,42.3c2.3,12.7,6,21.7,10.9,27.1
		h-49.5c-3.4-5.7-5.5-11.9-6.1-18.8c-0.6-6.9-0.9-13.5-0.9-19.9c0-12.1-0.7-22.5-2.2-31.2c-1.5-8.7-4.2-16-8.1-21.8
		c-3.9-5.8-9.3-10-16.1-12.7c-6.8-2.7-15.4-4.1-26-4.1h-67.9v108.5h-46.1V139.9z M1233.2,259.9h75.7c14.8,0,26-3.5,33.6-10.5
		c7.6-7,11.4-17.5,11.4-31.6c0-8.4-1.2-15.2-3.7-20.5c-2.5-5.3-5.8-9.4-10.2-12.4c-4.3-3-9.2-4.9-14.8-5.9c-5.5-1-11.3-1.5-17.2-1.5
		h-74.9V259.9z"/>
	<path class="st0" d="M1559.1,133.6c19.7,0,37.3,3.7,53,11.1c15.6,7.4,28.9,17.3,39.7,29.9c10.8,12.6,19.1,27.2,24.9,43.9
		c5.8,16.7,8.7,34.5,8.7,53.2c0,19-2.9,36.8-8.7,53.5c-5.8,16.7-14.1,31.4-24.9,43.9c-10.8,12.6-24.1,22.5-39.7,29.7
		c-15.6,7.3-33.3,10.9-53,10.9c-19.7,0-37.3-3.6-53-10.9c-15.6-7.3-28.9-17.2-39.7-29.7c-10.8-12.6-19.1-27.2-24.9-43.9
		c-5.8-16.7-8.7-34.6-8.7-53.5c0-18.7,2.9-36.4,8.7-53.2c5.8-16.7,14.1-31.4,24.9-43.9c10.8-12.6,24.1-22.5,39.7-29.9
		C1521.8,137.3,1539.5,133.6,1559.1,133.6z M1559.1,171.3c-14,0-26.2,2.8-36.4,8.5c-10.2,5.7-18.5,13.2-24.9,22.7
		c-6.4,9.5-11.1,20.2-14.2,32.3c-3.1,12.1-4.6,24.4-4.6,36.9s1.5,24.9,4.6,36.9c3.1,12.1,7.8,22.8,14.2,32.3
		c6.4,9.5,14.7,17,24.9,22.7c10.2,5.7,22.3,8.5,36.4,8.5c14,0,26.1-2.8,36.4-8.5c10.2-5.7,18.5-13.2,24.9-22.7
		c6.4-9.5,11.1-20.2,14.2-32.3c3.1-12.1,4.6-24.4,4.6-36.9s-1.5-24.9-4.6-36.9c-3.1-12.1-7.8-22.8-14.2-32.3
		c-6.4-9.5-14.7-17-24.9-22.7C1585.3,174.1,1573.2,171.3,1559.1,171.3z"/>
	<path class="st0" d="M1727.5,139.9h46.1v120l117.4-120h56.8l-105.2,105.2l112.6,158.4h-57.6l-86.4-125.9l-37.7,37.3v88.6h-46.1
		V139.9z"/>
	<path class="st0" d="M2050.8,139.9h49.1l101.5,263.6H2152l-24.7-69.8H2022l-24.7,69.8h-47.6L2050.8,139.9z M2034.6,298.7h80.5
		l-39.5-113.3h-1.1L2034.6,298.7z"/>
	<path class="st0" d="M2329.2,139.9h46.1v120l117.4-120h56.8l-105.2,105.2l112.6,158.4h-57.6L2413,277.6l-37.7,37.3v88.6h-46.1
		V139.9z"/>
	<path class="st0" d="M2694.2,133.6c19.7,0,37.3,3.7,53,11.1c15.6,7.4,28.9,17.3,39.7,29.9c10.8,12.6,19.1,27.2,24.9,43.9
		c5.8,16.7,8.7,34.5,8.7,53.2c0,19-2.9,36.8-8.7,53.5c-5.8,16.7-14.1,31.4-24.9,43.9c-10.8,12.6-24.1,22.5-39.7,29.7
		c-15.6,7.3-33.3,10.9-53,10.9c-19.7,0-37.3-3.6-53-10.9c-15.6-7.3-28.9-17.2-39.7-29.7c-10.8-12.6-19.1-27.2-24.9-43.9
		c-5.8-16.7-8.7-34.6-8.7-53.5c0-18.7,2.9-36.4,8.7-53.2c5.8-16.7,14.1-31.4,24.9-43.9c10.8-12.6,24.1-22.5,39.7-29.9
		C2656.9,137.3,2674.5,133.6,2694.2,133.6z M2694.2,171.3c-14,0-26.2,2.8-36.4,8.5c-10.2,5.7-18.5,13.2-24.9,22.7
		c-6.4,9.5-11.1,20.2-14.2,32.3c-3.1,12.1-4.6,24.4-4.6,36.9s1.5,24.9,4.6,36.9c3.1,12.1,7.8,22.8,14.2,32.3
		c6.4,9.5,14.7,17,24.9,22.7c10.2,5.7,22.3,8.5,36.4,8.5c14,0,26.1-2.8,36.4-8.5c10.2-5.7,18.5-13.2,24.9-22.7
		c6.4-9.5,11.1-20.2,14.2-32.3c3.1-12.1,4.6-24.4,4.6-36.9s-1.5-24.9-4.6-36.9c-3.1-12.1-7.8-22.8-14.2-32.3
		c-6.4-9.5-14.7-17-24.9-22.7C2720.4,174.1,2708.3,171.3,2694.2,171.3z"/>
	<path class="st0" d="M2837.5,139.9h213.4v39.9H2967v223.7h-46.1V179.8h-83.4V139.9z"/>
	<path class="st0" d="M3152,139.9h49.1l101.5,263.6h-49.5l-24.7-69.8h-105.2l-24.7,69.8h-47.6L3152,139.9z M3135.7,298.7h80.5
		l-39.5-113.3h-1.1L3135.7,298.7z"/>
	<path class="st0" d="M3327.7,139.9h125.9c29,0,50.8,6.3,65.3,18.8c14.5,12.6,21.8,30,21.8,52.4c0,12.6-1.8,23-5.5,31.2
		c-3.7,8.2-8,14.9-12.9,19.9c-4.9,5-9.8,8.7-14.6,10.9c-4.8,2.2-8.3,3.7-10.5,4.4v0.7c3.9,0.5,8.2,1.7,12.7,3.7
		c4.6,2,8.8,5.1,12.7,9.4c3.9,4.3,7.2,9.9,9.8,16.8c2.6,6.9,3.9,15.5,3.9,25.8c0,15.5,1.2,29.6,3.5,42.3c2.3,12.7,6,21.7,10.9,27.1
		h-49.5c-3.4-5.7-5.5-11.9-6.1-18.8c-0.6-6.9-0.9-13.5-0.9-19.9c0-12.1-0.7-22.5-2.2-31.2c-1.5-8.7-4.2-16-8.1-21.8
		c-3.9-5.8-9.3-10-16.1-12.7c-6.8-2.7-15.4-4.1-26-4.1h-67.9v108.5h-46.1V139.9z M3373.8,259.9h75.7c14.8,0,26-3.5,33.6-10.5
		c7.6-7,11.4-17.5,11.4-31.6c0-8.4-1.2-15.2-3.7-20.5c-2.5-5.3-5.8-9.4-10.2-12.4c-4.3-3-9.2-4.9-14.8-5.9c-5.5-1-11.3-1.5-17.2-1.5
		h-74.9V259.9z"/>
	<path class="st0" d="M3699.8,133.6c19.7,0,37.3,3.7,53,11.1c15.6,7.4,28.9,17.3,39.7,29.9c10.8,12.6,19.1,27.2,24.9,43.9
		c5.8,16.7,8.7,34.5,8.7,53.2c0,19-2.9,36.8-8.7,53.5c-5.8,16.7-14.1,31.4-24.9,43.9c-10.8,12.6-24.1,22.5-39.7,29.7
		c-15.6,7.3-33.3,10.9-53,10.9c-19.7,0-37.3-3.6-53-10.9c-15.6-7.3-28.9-17.2-39.7-29.7c-10.8-12.6-19.1-27.2-24.9-43.9
		c-5.8-16.7-8.7-34.6-8.7-53.5c0-18.7,2.9-36.4,8.7-53.2c5.8-16.7,14.1-31.4,24.9-43.9c10.8-12.6,24.1-22.5,39.7-29.9
		C3662.4,137.3,3680.1,133.6,3699.8,133.6z M3699.8,171.3c-14,0-26.2,2.8-36.4,8.5c-10.2,5.7-18.5,13.2-24.9,22.7
		c-6.4,9.5-11.1,20.2-14.2,32.3c-3.1,12.1-4.6,24.4-4.6,36.9s1.5,24.9,4.6,36.9c3.1,12.1,7.8,22.8,14.2,32.3
		c6.4,9.5,14.7,17,24.9,22.7c10.2,5.7,22.3,8.5,36.4,8.5c14,0,26.1-2.8,36.4-8.5c10.2-5.7,18.5-13.2,24.9-22.7
		c6.4-9.5,11.1-20.2,14.2-32.3c3.1-12.1,4.6-24.4,4.6-36.9s-1.5-24.9-4.6-36.9c-3.1-12.1-7.8-22.8-14.2-32.3
		c-6.4-9.5-14.7-17-24.9-22.7C3725.9,174.1,3713.8,171.3,3699.8,171.3z"/>
</g>
</svg>
